<svg xmlns="http://www.w3.org/2000/svg" width="14.012" height="16.013" viewBox="0 0 14.012 16.013">
  <path id="attachment" d="M11.037,5.115,10.021,4.1,4.942,9.178a2.155,2.155,0,0,0,3.047,3.047l6.1-6.094A3.591,3.591,0,0,0,9.005,1.053l-6.4,6.4-.014.013a5.009,5.009,0,1,0,7.084,7.083l.013-.014h0l4.369-4.368L13.042,9.151,8.673,13.518l-.013.013A3.572,3.572,0,1,1,3.622,8.466h0l6.4-6.4A2.155,2.155,0,1,1,13.07,5.114l-6.1,6.094a.718.718,0,0,1-1.016-1.015l5.079-5.079Z" transform="translate(-1.124 0)" fill="#888"/>
</svg>
