<svg id="emoji" xmlns="http://www.w3.org/2000/svg" width="16.013" height="16.013" viewBox="0 0 16.013 16.013">
  <path id="Path_5784" data-name="Path 5784" d="M8.006,15.012A7.005,7.005,0,1,0,1,8.006,7.005,7.005,0,0,0,8.006,15.012Zm0,1A8.006,8.006,0,1,0,0,8.006,8.006,8.006,0,0,0,8.006,16.013Z" fill="#888" fill-rule="evenodd"/>
  <path id="Path_5785" data-name="Path 5785" d="M9.328,21.442a.5.5,0,0,1,.684.183,3.5,3.5,0,0,0,6.069,0,.5.5,0,1,1,.867.5,4.5,4.5,0,0,1-7.8,0,.5.5,0,0,1,.183-.684Z" transform="translate(-5.04 -11.867)" fill="#888" fill-rule="evenodd"/>
  <path id="Path_5786" data-name="Path 5786" d="M13.252,12.751c0,.829-.448,1.5-1,1.5s-1-.673-1-1.5.448-1.5,1-1.5S13.252,11.923,13.252,12.751Zm4,0c0,.829-.448,1.5-1,1.5s-1-.673-1-1.5.448-1.5,1-1.5S17.255,11.923,17.255,12.751Z" transform="translate(-6.246 -6.246)" fill="#888"/>
</svg>
